<?xml version="1.0"?><svg width="128" height="128" xmlns="http://www.w3.org/2000/svg">
 <title>coffee cup</title>
 <metadata id="metadata7">image/svg+xml</metadata>
 <g>
  <title>Layer 1</title>
  <g id="layer1">
   <path d="m16,48l79.999992,0c0,24 -3.160995,40 -24,56l-31.999992,0c-19.69104,-14.073761 -24,-32 -24,-56z" id="path7583" stroke-miterlimit="4" stroke-linejoin="round" stroke-width="6" stroke="#000000" fill-rule="evenodd" fill="#ffffff"/>
   <path id="path7585" d="m8,96l96.334679,0c-8.334686,8 -8.334686,12.662048 -28.900406,15.643158l-38.533863,0c-20.90041,-2.443031 -20.90041,-7.643158 -28.90041,-15.643158z" stroke-miterlimit="4" stroke-linejoin="round" stroke-width="6" stroke="#000000" fill-rule="evenodd" fill="#ffffff"/>
   <path id="path7589" d="m121.812897,73.611603a12.913651,17.13994 0 1 1 -25.827309,-8.804604a12.913651,17.13994 0 1 1 25.827309,8.804604z" stroke-dashoffset="0" stroke-miterlimit="4" marker-end="none" marker-mid="none" marker-start="none" stroke-linejoin="round" stroke-linecap="round" stroke-width="6" stroke="#000000" fill-rule="evenodd" fill="#ffffff"/>
   <path d="m47.627911,7.44186c15.25668,15.91748 -14.093681,16.960091 0,33.240299" id="path7593" stroke-miterlimit="4" stroke-linecap="round" stroke-width="4" stroke="#000000" fill-rule="evenodd" fill="#ffffff"/>
   <path id="path7595" d="m57.550388,7.93799c15.256695,15.91748 -14.093678,16.960051 0,33.24029" stroke-miterlimit="4" stroke-linecap="round" stroke-width="4" stroke="#000000" fill-rule="evenodd" fill="#ffffff"/>
   <path d="m68.465134,7.93799c15.256653,15.91748 -14.093693,16.960051 0,33.24029" id="path7597" stroke-miterlimit="4" stroke-linecap="round" stroke-width="4" stroke="#000000" fill-rule="evenodd" fill="#ffffff"/>
  </g>
 </g>
</svg>